<svg width="250" height="299" viewBox="0 0 250 299" fill="none" xmlns="http://www.w3.org/2000/svg">
<rect width="250" height="250" fill="#777777"/>
<rect x="2" y="2" width="246" height="246" fill="#F9F9F9"/>
<rect x="188" y="88" width="60" height="160" fill="#939393"/>
<rect x="194" y="94" width="9" height="6" fill="white"/>
<rect x="194" y="102" width="9" height="6" fill="white"/>
<rect x="207" y="94" width="9" height="6" fill="white"/>
<rect x="220" y="94" width="9" height="6" fill="white"/>
<rect x="233" y="94" width="9" height="6" fill="white"/>
<rect x="207" y="102" width="9" height="6" fill="white"/>
<rect x="220" y="102" width="9" height="6" fill="white"/>
<rect x="233" y="102" width="9" height="6" fill="white"/>
<rect x="194" y="110" width="9" height="6" fill="white"/>
<rect x="207" y="110" width="9" height="6" fill="white"/>
<rect x="220" y="110" width="9" height="6" fill="white"/>
<rect x="233" y="110" width="9" height="6" fill="white"/>
<rect x="194" y="118" width="9" height="6" fill="white"/>
<rect x="207" y="118" width="9" height="6" fill="white"/>
<rect x="220" y="118" width="9" height="6" fill="white"/>
<rect x="233" y="118" width="9" height="6" fill="white"/>
<rect x="194" y="130" width="9" height="6" fill="white"/>
<rect x="207" y="130" width="9" height="6" fill="white"/>
<rect x="220" y="130" width="9" height="6" fill="white"/>
<rect x="233" y="130" width="9" height="6" fill="white"/>
<rect x="194" y="138" width="9" height="6" fill="white"/>
<rect x="207" y="138" width="9" height="6" fill="white"/>
<rect x="220" y="138" width="9" height="6" fill="white"/>
<rect x="233" y="138" width="9" height="6" fill="white"/>
<rect x="194" y="146" width="9" height="6" fill="white"/>
<rect x="207" y="146" width="9" height="6" fill="white"/>
<rect x="220" y="146" width="9" height="6" fill="white"/>
<rect x="233" y="146" width="9" height="6" fill="white"/>
<rect x="194" y="154" width="9" height="6" fill="white"/>
<rect x="207" y="154" width="9" height="6" fill="white"/>
<rect x="220" y="154" width="9" height="6" fill="white"/>
<rect x="233" y="154" width="9" height="6" fill="white"/>
<rect x="194" y="166" width="9" height="6" fill="white"/>
<rect x="207" y="166" width="9" height="6" fill="white"/>
<rect x="220" y="166" width="9" height="6" fill="white"/>
<rect x="233" y="166" width="9" height="6" fill="white"/>
<rect x="194" y="174" width="9" height="6" fill="white"/>
<rect x="207" y="174" width="9" height="6" fill="white"/>
<rect x="220" y="174" width="9" height="6" fill="white"/>
<rect x="233" y="174" width="9" height="6" fill="white"/>
<rect x="194" y="182" width="9" height="6" fill="white"/>
<rect x="207" y="182" width="9" height="6" fill="white"/>
<rect x="220" y="182" width="9" height="6" fill="white"/>
<rect x="233" y="182" width="9" height="6" fill="white"/>
<rect x="194" y="190" width="9" height="6" fill="white"/>
<rect x="207" y="190" width="9" height="6" fill="white"/>
<rect x="220" y="190" width="9" height="6" fill="white"/>
<rect x="233" y="190" width="9" height="6" fill="white"/>
<rect x="194" y="202" width="9" height="6" fill="white"/>
<rect x="207" y="202" width="9" height="6" fill="white"/>
<rect x="220" y="202" width="9" height="6" fill="white"/>
<rect x="233" y="202" width="9" height="6" fill="white"/>
<rect x="194" y="210" width="9" height="6" fill="white"/>
<rect x="207" y="210" width="9" height="6" fill="white"/>
<rect x="220" y="210" width="9" height="6" fill="white"/>
<rect x="233" y="210" width="9" height="6" fill="white"/>
<rect x="194" y="218" width="9" height="6" fill="white"/>
<rect x="207" y="218" width="9" height="6" fill="white"/>
<rect x="220" y="218" width="9" height="6" fill="white"/>
<rect x="233" y="218" width="9" height="6" fill="white"/>
<rect x="194" y="226" width="9" height="6" fill="white"/>
<rect x="207" y="226" width="9" height="6" fill="white"/>
<rect x="220" y="226" width="9" height="6" fill="white"/>
<rect x="233" y="226" width="9" height="6" fill="white"/>
<rect x="116" y="206" width="72" height="42" fill="#939393"/>
<rect x="180" y="209" width="4" height="4" fill="white"/>
<rect x="174" y="209" width="4" height="4" fill="white"/>
<rect x="168" y="209" width="4" height="4" fill="white"/>
<rect x="162" y="209" width="4" height="4" fill="white"/>
<rect x="156" y="209" width="4" height="4" fill="white"/>
<rect x="150" y="209" width="4" height="4" fill="white"/>
<rect x="144" y="209" width="4" height="4" fill="white"/>
<rect x="138" y="209" width="4" height="4" fill="white"/>
<rect x="132" y="209" width="4" height="4" fill="white"/>
<rect x="126" y="209" width="4" height="4" fill="white"/>
<rect x="120" y="209" width="4" height="4" fill="white"/>
<rect x="180" y="215" width="4" height="4" fill="white"/>
<rect x="174" y="215" width="4" height="4" fill="white"/>
<rect x="168" y="215" width="4" height="4" fill="white"/>
<rect x="162" y="215" width="4" height="4" fill="white"/>
<rect x="156" y="215" width="4" height="4" fill="white"/>
<rect x="150" y="215" width="4" height="4" fill="white"/>
<rect x="144" y="215" width="4" height="4" fill="white"/>
<rect x="138" y="215" width="4" height="4" fill="white"/>
<rect x="132" y="215" width="4" height="4" fill="white"/>
<rect x="126" y="215" width="4" height="4" fill="white"/>
<rect x="120" y="215" width="4" height="4" fill="white"/>
<rect x="180" y="221" width="4" height="4" fill="white"/>
<rect x="174" y="221" width="4" height="4" fill="white"/>
<rect x="168" y="221" width="4" height="4" fill="white"/>
<rect x="162" y="221" width="4" height="4" fill="white"/>
<rect x="156" y="221" width="4" height="4" fill="white"/>
<rect x="150" y="221" width="4" height="4" fill="white"/>
<rect x="144" y="221" width="4" height="4" fill="white"/>
<rect x="138" y="221" width="4" height="4" fill="white"/>
<rect x="132" y="221" width="4" height="4" fill="white"/>
<rect x="126" y="221" width="4" height="4" fill="white"/>
<rect x="120" y="221" width="4" height="4" fill="white"/>
<rect x="180" y="227" width="4" height="4" fill="white"/>
<rect x="174" y="227" width="4" height="4" fill="white"/>
<rect x="168" y="227" width="4" height="4" fill="white"/>
<rect x="162" y="227" width="4" height="4" fill="white"/>
<rect x="156" y="227" width="4" height="4" fill="white"/>
<rect x="150" y="227" width="4" height="4" fill="white"/>
<rect x="144" y="227" width="4" height="4" fill="white"/>
<rect x="138" y="227" width="4" height="4" fill="white"/>
<rect x="132" y="227" width="4" height="4" fill="white"/>
<rect x="126" y="227" width="4" height="4" fill="white"/>
<rect x="120" y="227" width="4" height="4" fill="white"/>
<rect x="180" y="233" width="4" height="4" fill="white"/>
<rect x="174" y="233" width="4" height="4" fill="white"/>
<rect x="168" y="233" width="4" height="4" fill="white"/>
<rect x="162" y="233" width="4" height="4" fill="white"/>
<rect x="156" y="233" width="4" height="4" fill="white"/>
<rect x="150" y="233" width="4" height="4" fill="white"/>
<rect x="144" y="233" width="4" height="4" fill="white"/>
<rect x="138" y="233" width="4" height="4" fill="white"/>
<rect x="132" y="233" width="4" height="4" fill="white"/>
<rect x="126" y="233" width="4" height="4" fill="white"/>
<rect x="120" y="233" width="4" height="4" fill="white"/>
<rect x="180" y="239" width="4" height="4" fill="white"/>
<rect x="174" y="239" width="4" height="4" fill="white"/>
<rect x="168" y="239" width="4" height="4" fill="white"/>
<rect x="162" y="239" width="4" height="4" fill="white"/>
<rect x="156" y="239" width="4" height="4" fill="white"/>
<rect x="150" y="239" width="4" height="4" fill="white"/>
<rect x="144" y="239" width="4" height="4" fill="white"/>
<rect x="138" y="239" width="4" height="4" fill="white"/>
<rect x="132" y="239" width="4" height="4" fill="white"/>
<rect x="126" y="239" width="4" height="4" fill="white"/>
<rect x="120" y="239" width="4" height="4" fill="white"/>
<rect x="74" y="174" width="42" height="74" fill="#939393"/>
<rect x="106" y="176" width="8" height="8" fill="white"/>
<rect x="96" y="176" width="8" height="8" fill="white"/>
<rect x="86" y="176" width="8" height="8" fill="white"/>
<rect x="76" y="176" width="8" height="8" fill="white"/>
<rect x="106" y="186" width="8" height="8" fill="white"/>
<rect x="96" y="186" width="8" height="8" fill="white"/>
<rect x="86" y="186" width="8" height="8" fill="white"/>
<rect x="76" y="186" width="8" height="8" fill="white"/>
<rect x="106" y="196" width="8" height="8" fill="white"/>
<rect x="96" y="196" width="8" height="8" fill="white"/>
<rect x="86" y="196" width="8" height="8" fill="white"/>
<rect x="76" y="196" width="8" height="8" fill="white"/>
<rect x="106" y="206" width="8" height="8" fill="white"/>
<rect x="96" y="206" width="8" height="8" fill="white"/>
<rect x="86" y="206" width="8" height="8" fill="white"/>
<rect x="76" y="206" width="8" height="8" fill="white"/>
<rect x="106" y="216" width="8" height="8" fill="white"/>
<rect x="96" y="216" width="8" height="8" fill="white"/>
<rect x="86" y="216" width="8" height="8" fill="white"/>
<rect x="76" y="216" width="8" height="8" fill="white"/>
<rect x="106" y="226" width="8" height="8" fill="white"/>
<rect x="96" y="226" width="8" height="8" fill="white"/>
<rect x="86" y="226" width="8" height="8" fill="white"/>
<rect x="76" y="226" width="8" height="8" fill="white"/>
<rect x="54" y="235" width="20" height="13" fill="#939393"/>
<rect x="2" y="190" width="52" height="58" fill="#939393"/>
<rect x="42" y="193" width="8" height="6" fill="white"/>
<rect x="33" y="193" width="8" height="6" fill="white"/>
<rect x="24" y="193" width="8" height="6" fill="white"/>
<rect x="15" y="193" width="8" height="6" fill="white"/>
<rect x="6" y="193" width="8" height="6" fill="white"/>
<rect x="42" y="202" width="8" height="6" fill="white"/>
<rect x="33" y="202" width="8" height="6" fill="white"/>
<rect x="24" y="202" width="8" height="6" fill="white"/>
<rect x="15" y="202" width="8" height="6" fill="white"/>
<rect x="6" y="202" width="8" height="6" fill="white"/>
<rect x="42" y="211" width="8" height="6" fill="white"/>
<rect x="33" y="211" width="8" height="6" fill="white"/>
<rect x="24" y="211" width="8" height="6" fill="white"/>
<rect x="15" y="211" width="8" height="6" fill="white"/>
<rect x="6" y="211" width="8" height="6" fill="white"/>
<rect x="42" y="220" width="8" height="6" fill="white"/>
<rect x="33" y="220" width="8" height="6" fill="white"/>
<rect x="24" y="220" width="8" height="6" fill="white"/>
<rect x="15" y="220" width="8" height="6" fill="white"/>
<rect x="6" y="220" width="8" height="6" fill="white"/>
<rect x="42" y="229" width="8" height="6" fill="white"/>
<rect x="33" y="229" width="8" height="6" fill="white"/>
<rect x="24" y="229" width="8" height="6" fill="white"/>
<rect x="15" y="229" width="8" height="6" fill="white"/>
<rect x="6" y="229" width="8" height="6" fill="white"/>
<rect x="42" y="238" width="8" height="6" fill="white"/>
<rect x="33" y="238" width="8" height="6" fill="white"/>
<rect x="24" y="238" width="8" height="6" fill="white"/>
<rect x="15" y="238" width="8" height="6" fill="white"/>
<rect x="6" y="238" width="8" height="6" fill="white"/>
<rect x="2" y="143" width="21" height="47" fill="#C5C5C5"/>
<rect x="4" y="146" width="2" height="2" fill="white"/>
<rect x="7" y="146" width="2" height="2" fill="white"/>
<rect x="10" y="146" width="2" height="2" fill="white"/>
<rect x="13" y="146" width="2" height="2" fill="white"/>
<rect x="16" y="146" width="2" height="2" fill="white"/>
<rect x="19" y="146" width="2" height="2" fill="white"/>
<rect x="4" y="149" width="2" height="2" fill="white"/>
<rect x="7" y="149" width="2" height="2" fill="white"/>
<rect x="10" y="149" width="2" height="2" fill="white"/>
<rect x="13" y="149" width="2" height="2" fill="white"/>
<rect x="16" y="149" width="2" height="2" fill="white"/>
<rect x="19" y="149" width="2" height="2" fill="white"/>
<rect x="4" y="152" width="2" height="2" fill="white"/>
<rect x="7" y="152" width="2" height="2" fill="white"/>
<rect x="10" y="152" width="2" height="2" fill="white"/>
<rect x="13" y="152" width="2" height="2" fill="white"/>
<rect x="16" y="152" width="2" height="2" fill="white"/>
<rect x="19" y="152" width="2" height="2" fill="white"/>
<rect x="4" y="155" width="2" height="2" fill="white"/>
<rect x="7" y="155" width="2" height="2" fill="white"/>
<rect x="10" y="155" width="2" height="2" fill="white"/>
<rect x="13" y="155" width="2" height="2" fill="white"/>
<rect x="16" y="155" width="2" height="2" fill="white"/>
<rect x="19" y="155" width="2" height="2" fill="white"/>
<rect x="4" y="158" width="2" height="2" fill="white"/>
<rect x="7" y="158" width="2" height="2" fill="white"/>
<rect x="10" y="158" width="2" height="2" fill="white"/>
<rect x="13" y="158" width="2" height="2" fill="white"/>
<rect x="16" y="158" width="2" height="2" fill="white"/>
<rect x="19" y="158" width="2" height="2" fill="white"/>
<rect x="4" y="161" width="2" height="2" fill="white"/>
<rect x="7" y="161" width="2" height="2" fill="white"/>
<rect x="10" y="161" width="2" height="2" fill="white"/>
<rect x="13" y="161" width="2" height="2" fill="white"/>
<rect x="16" y="161" width="2" height="2" fill="white"/>
<rect x="19" y="161" width="2" height="2" fill="white"/>
<rect x="4" y="164" width="2" height="2" fill="white"/>
<rect x="7" y="164" width="2" height="2" fill="white"/>
<rect x="10" y="164" width="2" height="2" fill="white"/>
<rect x="13" y="164" width="2" height="2" fill="white"/>
<rect x="16" y="164" width="2" height="2" fill="white"/>
<rect x="19" y="164" width="2" height="2" fill="white"/>
<rect x="4" y="167" width="2" height="2" fill="white"/>
<rect x="7" y="167" width="2" height="2" fill="white"/>
<rect x="10" y="167" width="2" height="2" fill="white"/>
<rect x="13" y="167" width="2" height="2" fill="white"/>
<rect x="16" y="167" width="2" height="2" fill="white"/>
<rect x="19" y="167" width="2" height="2" fill="white"/>
<rect x="4" y="170" width="2" height="2" fill="white"/>
<rect x="7" y="170" width="2" height="2" fill="white"/>
<rect x="10" y="170" width="2" height="2" fill="white"/>
<rect x="13" y="170" width="2" height="2" fill="white"/>
<rect x="16" y="170" width="2" height="2" fill="white"/>
<rect x="19" y="170" width="2" height="2" fill="white"/>
<rect x="4" y="173" width="2" height="2" fill="white"/>
<rect x="7" y="173" width="2" height="2" fill="white"/>
<rect x="10" y="173" width="2" height="2" fill="white"/>
<rect x="13" y="173" width="2" height="2" fill="white"/>
<rect x="16" y="173" width="2" height="2" fill="white"/>
<rect x="19" y="173" width="2" height="2" fill="white"/>
<rect x="4" y="176" width="2" height="2" fill="white"/>
<rect x="7" y="176" width="2" height="2" fill="white"/>
<rect x="10" y="176" width="2" height="2" fill="white"/>
<rect x="13" y="176" width="2" height="2" fill="white"/>
<rect x="16" y="176" width="2" height="2" fill="white"/>
<rect x="19" y="176" width="2" height="2" fill="white"/>
<rect x="4" y="179" width="2" height="2" fill="white"/>
<rect x="7" y="179" width="2" height="2" fill="white"/>
<rect x="10" y="179" width="2" height="2" fill="white"/>
<rect x="13" y="179" width="2" height="2" fill="white"/>
<rect x="16" y="179" width="2" height="2" fill="white"/>
<rect x="19" y="179" width="2" height="2" fill="white"/>
<rect x="4" y="182" width="2" height="2" fill="white"/>
<rect x="7" y="182" width="2" height="2" fill="white"/>
<rect x="10" y="182" width="2" height="2" fill="white"/>
<rect x="13" y="182" width="2" height="2" fill="white"/>
<rect x="16" y="182" width="2" height="2" fill="white"/>
<rect x="19" y="182" width="2" height="2" fill="white"/>
<rect x="4" y="185" width="2" height="2" fill="white"/>
<rect x="7" y="185" width="2" height="2" fill="white"/>
<rect x="10" y="185" width="2" height="2" fill="white"/>
<rect x="13" y="185" width="2" height="2" fill="white"/>
<rect x="16" y="185" width="2" height="2" fill="white"/>
<rect x="19" y="185" width="2" height="2" fill="white"/>
<rect x="23" y="186" width="22" height="4" fill="#C5C5C5"/>
<path d="M45 179H64V235H54V190H45V179Z" fill="#C5C5C5"/>
<rect x="52" y="181" width="2" height="2" fill="white"/>
<rect x="55" y="181" width="2" height="2" fill="white"/>
<rect x="55" y="184" width="2" height="2" fill="white"/>
<rect x="58" y="184" width="2" height="2" fill="white"/>
<rect x="61" y="184" width="2" height="2" fill="white"/>
<rect x="61" y="187" width="2" height="2" fill="white"/>
<rect x="58" y="187" width="2" height="2" fill="white"/>
<rect x="55" y="187" width="2" height="2" fill="white"/>
<rect x="61" y="190" width="2" height="2" fill="white"/>
<rect x="58" y="190" width="2" height="2" fill="white"/>
<rect x="55" y="190" width="2" height="2" fill="white"/>
<rect x="61" y="193" width="2" height="2" fill="white"/>
<rect x="58" y="193" width="2" height="2" fill="white"/>
<rect x="55" y="193" width="2" height="2" fill="white"/>
<rect x="61" y="196" width="2" height="2" fill="white"/>
<rect x="58" y="196" width="2" height="2" fill="white"/>
<rect x="55" y="196" width="2" height="2" fill="white"/>
<rect x="61" y="199" width="2" height="2" fill="white"/>
<rect x="58" y="199" width="2" height="2" fill="white"/>
<rect x="55" y="199" width="2" height="2" fill="white"/>
<rect x="61" y="202" width="2" height="2" fill="white"/>
<rect x="58" y="202" width="2" height="2" fill="white"/>
<rect x="55" y="202" width="2" height="2" fill="white"/>
<rect x="61" y="205" width="2" height="2" fill="white"/>
<rect x="58" y="205" width="2" height="2" fill="white"/>
<rect x="55" y="205" width="2" height="2" fill="white"/>
<rect x="61" y="208" width="2" height="2" fill="white"/>
<rect x="58" y="208" width="2" height="2" fill="white"/>
<rect x="55" y="208" width="2" height="2" fill="white"/>
<rect x="61" y="211" width="2" height="2" fill="white"/>
<rect x="58" y="211" width="2" height="2" fill="white"/>
<rect x="55" y="211" width="2" height="2" fill="white"/>
<rect x="61" y="214" width="2" height="2" fill="white"/>
<rect x="58" y="214" width="2" height="2" fill="white"/>
<rect x="55" y="214" width="2" height="2" fill="white"/>
<rect x="61" y="217" width="2" height="2" fill="white"/>
<rect x="58" y="217" width="2" height="2" fill="white"/>
<rect x="55" y="217" width="2" height="2" fill="white"/>
<rect x="61" y="220" width="2" height="2" fill="white"/>
<rect x="58" y="220" width="2" height="2" fill="white"/>
<rect x="55" y="220" width="2" height="2" fill="white"/>
<rect x="61" y="223" width="2" height="2" fill="white"/>
<rect x="58" y="223" width="2" height="2" fill="white"/>
<rect x="55" y="223" width="2" height="2" fill="white"/>
<rect x="61" y="226" width="2" height="2" fill="white"/>
<rect x="58" y="226" width="2" height="2" fill="white"/>
<rect x="55" y="226" width="2" height="2" fill="white"/>
<rect x="61" y="229" width="2" height="2" fill="white"/>
<rect x="58" y="229" width="2" height="2" fill="white"/>
<rect x="55" y="229" width="2" height="2" fill="white"/>
<rect x="61" y="232" width="2" height="2" fill="white"/>
<rect x="58" y="232" width="2" height="2" fill="white"/>
<rect x="55" y="232" width="2" height="2" fill="white"/>
<rect x="58" y="181" width="2" height="2" fill="white"/>
<rect x="61" y="181" width="2" height="2" fill="white"/>
<rect x="52" y="184" width="2" height="2" fill="white"/>
<rect x="52" y="187" width="2" height="2" fill="white"/>
<rect x="49" y="181" width="2" height="2" fill="white"/>
<rect x="46" y="181" width="2" height="2" fill="white"/>
<rect x="49" y="184" width="2" height="2" fill="white"/>
<rect x="46" y="184" width="2" height="2" fill="white"/>
<rect x="49" y="187" width="2" height="2" fill="white"/>
<rect x="46" y="187" width="2" height="2" fill="white"/>
<rect x="166" y="174" width="22" height="32" fill="#C5C5C5"/>
<rect x="132" y="149" width="34" height="57" fill="#C5C5C5"/>
<rect x="184" y="176" width="2" height="2" fill="white"/>
<rect x="180" y="176" width="2" height="2" fill="white"/>
<rect x="176" y="176" width="2" height="2" fill="white"/>
<rect x="172" y="176" width="2" height="2" fill="white"/>
<rect x="168" y="176" width="2" height="2" fill="white"/>
<rect x="184" y="180" width="2" height="2" fill="white"/>
<rect x="180" y="180" width="2" height="2" fill="white"/>
<rect x="176" y="180" width="2" height="2" fill="white"/>
<rect x="172" y="180" width="2" height="2" fill="white"/>
<rect x="168" y="180" width="2" height="2" fill="white"/>
<rect x="184" y="184" width="2" height="2" fill="white"/>
<rect x="180" y="184" width="2" height="2" fill="white"/>
<rect x="176" y="184" width="2" height="2" fill="white"/>
<rect x="172" y="184" width="2" height="2" fill="white"/>
<rect x="168" y="184" width="2" height="2" fill="white"/>
<rect x="184" y="188" width="2" height="2" fill="white"/>
<rect x="180" y="188" width="2" height="2" fill="white"/>
<rect x="176" y="188" width="2" height="2" fill="white"/>
<rect x="172" y="188" width="2" height="2" fill="white"/>
<rect x="168" y="188" width="2" height="2" fill="white"/>
<rect x="184" y="192" width="2" height="2" fill="white"/>
<rect x="180" y="192" width="2" height="2" fill="white"/>
<rect x="176" y="192" width="2" height="2" fill="white"/>
<rect x="172" y="192" width="2" height="2" fill="white"/>
<rect x="168" y="192" width="2" height="2" fill="white"/>
<rect x="184" y="196" width="2" height="2" fill="white"/>
<rect x="180" y="196" width="2" height="2" fill="white"/>
<rect x="176" y="196" width="2" height="2" fill="white"/>
<rect x="172" y="196" width="2" height="2" fill="white"/>
<rect x="168" y="196" width="2" height="2" fill="white"/>
<rect x="184" y="200" width="2" height="2" fill="white"/>
<rect x="180" y="200" width="2" height="2" fill="white"/>
<rect x="176" y="200" width="2" height="2" fill="white"/>
<rect x="172" y="200" width="2" height="2" fill="white"/>
<rect x="168" y="200" width="2" height="2" fill="white"/>
<rect x="158" y="152" width="2" height="2" fill="white"/>
<rect x="154" y="152" width="2" height="2" fill="white"/>
<rect x="150" y="152" width="2" height="2" fill="white"/>
<rect x="146" y="152" width="2" height="2" fill="white"/>
<rect x="142" y="152" width="2" height="2" fill="white"/>
<rect x="138" y="152" width="2" height="2" fill="white"/>
<rect x="158" y="155" width="2" height="2" fill="white"/>
<rect x="154" y="155" width="2" height="2" fill="white"/>
<rect x="150" y="155" width="2" height="2" fill="white"/>
<rect x="146" y="155" width="2" height="2" fill="white"/>
<rect x="142" y="155" width="2" height="2" fill="white"/>
<rect x="138" y="155" width="2" height="2" fill="white"/>
<rect x="158" y="158" width="2" height="2" fill="white"/>
<rect x="154" y="158" width="2" height="2" fill="white"/>
<rect x="150" y="158" width="2" height="2" fill="white"/>
<rect x="146" y="158" width="2" height="2" fill="white"/>
<rect x="142" y="158" width="2" height="2" fill="white"/>
<rect x="138" y="158" width="2" height="2" fill="white"/>
<rect x="158" y="161" width="2" height="2" fill="white"/>
<rect x="154" y="161" width="2" height="2" fill="white"/>
<rect x="150" y="161" width="2" height="2" fill="white"/>
<rect x="146" y="161" width="2" height="2" fill="white"/>
<rect x="142" y="161" width="2" height="2" fill="white"/>
<rect x="138" y="161" width="2" height="2" fill="white"/>
<rect x="158" y="164" width="2" height="2" fill="white"/>
<rect x="154" y="164" width="2" height="2" fill="white"/>
<rect x="150" y="164" width="2" height="2" fill="white"/>
<rect x="146" y="164" width="2" height="2" fill="white"/>
<rect x="142" y="164" width="2" height="2" fill="white"/>
<rect x="138" y="164" width="2" height="2" fill="white"/>
<rect x="158" y="167" width="2" height="2" fill="white"/>
<rect x="154" y="167" width="2" height="2" fill="white"/>
<rect x="150" y="167" width="2" height="2" fill="white"/>
<rect x="146" y="167" width="2" height="2" fill="white"/>
<rect x="142" y="167" width="2" height="2" fill="white"/>
<rect x="138" y="167" width="2" height="2" fill="white"/>
<rect x="158" y="170" width="2" height="2" fill="white"/>
<rect x="154" y="170" width="2" height="2" fill="white"/>
<rect x="150" y="170" width="2" height="2" fill="white"/>
<rect x="146" y="170" width="2" height="2" fill="white"/>
<rect x="142" y="170" width="2" height="2" fill="white"/>
<rect x="138" y="170" width="2" height="2" fill="white"/>
<rect x="158" y="173" width="2" height="2" fill="white"/>
<rect x="154" y="173" width="2" height="2" fill="white"/>
<rect x="150" y="173" width="2" height="2" fill="white"/>
<rect x="146" y="173" width="2" height="2" fill="white"/>
<rect x="142" y="173" width="2" height="2" fill="white"/>
<rect x="138" y="173" width="2" height="2" fill="white"/>
<rect x="158" y="176" width="2" height="2" fill="white"/>
<rect x="154" y="176" width="2" height="2" fill="white"/>
<rect x="150" y="176" width="2" height="2" fill="white"/>
<rect x="146" y="176" width="2" height="2" fill="white"/>
<rect x="142" y="176" width="2" height="2" fill="white"/>
<rect x="138" y="176" width="2" height="2" fill="white"/>
<rect x="158" y="179" width="2" height="2" fill="white"/>
<rect x="154" y="179" width="2" height="2" fill="white"/>
<rect x="150" y="179" width="2" height="2" fill="white"/>
<rect x="146" y="179" width="2" height="2" fill="white"/>
<rect x="142" y="179" width="2" height="2" fill="white"/>
<rect x="138" y="179" width="2" height="2" fill="white"/>
<rect x="158" y="182" width="2" height="2" fill="white"/>
<rect x="154" y="182" width="2" height="2" fill="white"/>
<rect x="150" y="182" width="2" height="2" fill="white"/>
<rect x="146" y="182" width="2" height="2" fill="white"/>
<rect x="142" y="182" width="2" height="2" fill="white"/>
<rect x="138" y="182" width="2" height="2" fill="white"/>
<rect x="158" y="185" width="2" height="2" fill="white"/>
<rect x="154" y="185" width="2" height="2" fill="white"/>
<rect x="150" y="185" width="2" height="2" fill="white"/>
<rect x="146" y="185" width="2" height="2" fill="white"/>
<rect x="142" y="185" width="2" height="2" fill="white"/>
<rect x="138" y="185" width="2" height="2" fill="white"/>
<rect x="158" y="188" width="2" height="2" fill="white"/>
<rect x="154" y="188" width="2" height="2" fill="white"/>
<rect x="150" y="188" width="2" height="2" fill="white"/>
<rect x="146" y="188" width="2" height="2" fill="white"/>
<rect x="142" y="188" width="2" height="2" fill="white"/>
<rect x="138" y="188" width="2" height="2" fill="white"/>
<rect x="158" y="191" width="2" height="2" fill="white"/>
<rect x="154" y="191" width="2" height="2" fill="white"/>
<rect x="150" y="191" width="2" height="2" fill="white"/>
<rect x="146" y="191" width="2" height="2" fill="white"/>
<rect x="142" y="191" width="2" height="2" fill="white"/>
<rect x="138" y="191" width="2" height="2" fill="white"/>
<rect x="158" y="194" width="2" height="2" fill="white"/>
<rect x="154" y="194" width="2" height="2" fill="white"/>
<rect x="150" y="194" width="2" height="2" fill="white"/>
<rect x="146" y="194" width="2" height="2" fill="white"/>
<rect x="142" y="194" width="2" height="2" fill="white"/>
<rect x="138" y="194" width="2" height="2" fill="white"/>
<rect x="158" y="197" width="2" height="2" fill="white"/>
<rect x="154" y="197" width="2" height="2" fill="white"/>
<rect x="150" y="197" width="2" height="2" fill="white"/>
<rect x="146" y="197" width="2" height="2" fill="white"/>
<rect x="142" y="197" width="2" height="2" fill="white"/>
<rect x="138" y="197" width="2" height="2" fill="white"/>
<rect x="158" y="200" width="2" height="2" fill="white"/>
<rect x="154" y="200" width="2" height="2" fill="white"/>
<rect x="150" y="200" width="2" height="2" fill="white"/>
<rect x="146" y="200" width="2" height="2" fill="white"/>
<rect x="142" y="200" width="2" height="2" fill="white"/>
<rect x="138" y="200" width="2" height="2" fill="white"/>
<rect x="158" y="200" width="2" height="2" fill="white"/>
<rect x="154" y="200" width="2" height="2" fill="white"/>
<rect x="150" y="200" width="2" height="2" fill="white"/>
<rect x="146" y="200" width="2" height="2" fill="white"/>
<rect x="142" y="200" width="2" height="2" fill="white"/>
<rect x="138" y="200" width="2" height="2" fill="white"/>
<rect x="122" y="195" width="10" height="11" fill="#C5C5C5"/>
<rect x="31" y="171" width="14" height="15" fill="#EAEAEA"/>
<rect x="45" y="175" width="16" height="4" fill="#EAEAEA"/>
<rect x="64" y="202" width="10" height="33" fill="#EAEAEA"/>
<rect x="116" y="186" width="6" height="20" fill="#EAEAEA"/>
<rect x="122" y="175" width="10" height="20" fill="#EAEAEA"/>
<rect x="32" y="172" width="12" height="1" fill="white"/>
<rect x="32" y="174" width="12" height="1" fill="white"/>
<rect x="32" y="176" width="12" height="1" fill="white"/>
<rect x="32" y="178" width="12" height="1" fill="white"/>
<rect x="32" y="180" width="12" height="1" fill="white"/>
<rect x="32" y="182" width="12" height="1" fill="white"/>
<rect x="32" y="184" width="12" height="1" fill="white"/>
<rect x="48" y="176" width="11" height="1" fill="white"/>
<rect x="65" y="203" width="6" height="1" fill="white"/>
<rect x="65" y="205" width="6" height="1" fill="white"/>
<rect x="65" y="207" width="6" height="1" fill="white"/>
<rect x="65" y="209" width="6" height="1" fill="white"/>
<rect x="65" y="211" width="6" height="1" fill="white"/>
<rect x="65" y="213" width="6" height="1" fill="white"/>
<rect x="65" y="215" width="6" height="1" fill="white"/>
<rect x="65" y="217" width="6" height="1" fill="white"/>
<rect x="65" y="219" width="6" height="1" fill="white"/>
<rect x="65" y="221" width="6" height="1" fill="white"/>
<rect x="65" y="223" width="6" height="1" fill="white"/>
<rect x="65" y="225" width="6" height="1" fill="white"/>
<rect x="65" y="227" width="6" height="1" fill="white"/>
<rect x="65" y="229" width="6" height="1" fill="white"/>
<rect x="117" y="187" width="4" height="1" fill="white"/>
<rect x="117" y="189" width="4" height="1" fill="white"/>
<rect x="117" y="191" width="4" height="1" fill="white"/>
<rect x="117" y="193" width="4" height="1" fill="white"/>
<rect x="117" y="195" width="4" height="1" fill="white"/>
<rect x="117" y="197" width="4" height="1" fill="white"/>
<rect x="117" y="199" width="4" height="1" fill="white"/>
<rect x="117" y="201" width="4" height="1" fill="white"/>
<rect x="117" y="203" width="4" height="1" fill="white"/>
<rect x="124" y="176" width="6" height="1" fill="white"/>
<rect x="124" y="178" width="6" height="1" fill="white"/>
<rect x="124" y="180" width="6" height="1" fill="white"/>
<rect x="124" y="182" width="6" height="1" fill="white"/>
<rect x="124" y="184" width="6" height="1" fill="white"/>
<rect x="124" y="186" width="6" height="1" fill="white"/>
<rect x="124" y="188" width="6" height="1" fill="white"/>
<rect x="124" y="190" width="6" height="1" fill="white"/>
<path d="M78 114L81 107L84 114V174H78V114Z" fill="#EFEFEF"/>
<rect x="84" y="141" width="2" height="33" fill="#EFEFEF"/>
<rect x="27" y="180" width="4" height="6" fill="#EFEFEF"/>
<rect x="75" y="168" width="3" height="6" fill="#EFEFEF"/>
<rect x="118" y="179" width="4" height="7" fill="#EFEFEF"/>
<rect x="127" y="171" width="5" height="4" fill="#EFEFEF"/>
<rect x="139" y="135" width="4" height="14" fill="#EFEFEF"/>
<rect x="166" y="170" width="10" height="4" fill="#EFEFEF"/>
<rect x="155" y="146" width="4" height="3" fill="#EFEFEF"/>
<rect x="146" y="145" width="5" height="4" fill="#EFEFEF"/>
<rect x="185" y="162" width="3" height="12" fill="#EFEFEF"/>
<path d="M14.3244 268.306V282.755H10.7226V268.306H14.3244ZM19.7478 290C21.9006 290 23.391 288.51 23.391 286.398V264.622C23.391 262.51 21.9006 261.02 19.7478 261.02H5.2992C3.1464 261.02 1.656 262.51 1.656 264.622V286.398C1.656 288.51 3.1464 290 5.2992 290H19.7478ZM46.5116 282.755V278.781H50.1548V282.755H46.5116ZM55.5782 271.536H46.5116V268.265H57.5654L59.0144 264.622V261.02H37.4864V290H55.5782C57.6896 290 59.18 288.468 59.18 286.357V275.137C59.18 273.026 57.6896 271.536 55.5782 271.536ZM94.4011 290V261.02H77.0545L71.5897 286.398V290H80.6977L84.0925 268.265H85.3759V290H94.4011ZM121.128 268.306V282.755H117.527V268.306H121.128ZM126.552 290C128.705 290 130.195 288.51 130.195 286.398V264.622C130.195 262.51 128.705 261.02 126.552 261.02H112.103C109.95 261.02 108.46 262.51 108.46 264.622V286.398C108.46 288.51 109.95 290 112.103 290H126.552ZM166.522 271.536H165.28V261.02H156.214V271.536H154.972L152.777 261.02H144.208V264.622L147.52 274.641L143.462 286.398V290H152.529L154.972 278.781H156.214V290H165.28V278.781H166.522L168.965 290H178.031V286.398L173.974 274.641L177.328 264.622V261.02H168.716L166.522 271.536ZM201.961 271.536H200.346V261.02H191.279V290H200.346V278.781H201.961L204.403 290H213.428V286.398L209.371 274.641L212.725 264.622V261.02H204.155L201.961 271.536ZM236.104 276.918L236.932 268.306H237.926L238.754 276.918H236.104ZM229.894 261.02L225.837 286.398V290H234.862L235.442 284.163H239.416L239.954 290H249.021V286.398L244.964 261.02H229.894Z" fill="#777777"/>
</svg>
