<svg width="30" height="30" viewBox="0 0 30 30" fill="none" xmlns="http://www.w3.org/2000/svg">
<path fill-rule="evenodd" clip-rule="evenodd" d="M28.3896 2.08139C28.2285 2.12534 25.2088 3.29859 21.6793 4.68867C18.1498 6.0787 12.0841 8.46744 8.19998 9.99693C4.31589 11.5265 0.991367 12.8517 0.812151 12.9418C0.455828 13.121 0.0781149 13.4977 0.0195092 13.7321C-0.0775418 14.1205 0.194682 14.615 0.676244 14.9251C1.0011 15.1343 7.5181 17.3722 7.6829 17.3311C7.73694 17.3176 11.6109 14.8647 16.2916 11.8802C20.9724 8.89577 24.8753 6.4283 24.9648 6.39699C25.1909 6.31784 25.494 6.35821 25.5684 6.47743C25.7355 6.74553 26.0485 6.4506 15.3363 16.1164C12.0277 19.1018 11.7889 19.33 11.881 19.4191C11.9355 19.4717 14.4063 21.3778 17.3718 23.6548C21.3977 26.7463 22.8377 27.8208 23.0565 27.8971C23.4821 28.0454 23.9876 28.0325 24.3458 27.8643C24.623 27.7341 25.0495 27.3357 25.1862 27.0792C25.2525 26.9549 30.0022 2.98677 30 2.7877C29.9973 2.53961 29.785 2.19231 29.575 2.09221C29.326 1.97358 28.8024 1.96882 28.3896 2.08139Z" fill="#35383F"/>
</svg>
