<svg width="23" height="23" viewBox="0 0 23 23" fill="none" xmlns="http://www.w3.org/2000/svg">
<path d="M4.83351 19.4467C4.09685 19.7065 3.5742 19.8864 3.20411 19.9738C3.08338 20.0023 2.99309 20.0173 2.92698 20.0237C2.93183 19.9575 2.94476 19.8666 2.97068 19.7446C3.05034 19.3699 3.22186 18.8352 3.47453 18.078C4.31815 15.5497 6.67128 12.548 9.34346 9.75333C11.9994 6.97563 14.9085 4.4648 16.7859 2.9198C17.7135 2.15645 19.0647 2.23892 19.929 3.10241C20.7595 3.9321 20.8668 5.21414 20.1696 6.12542C18.7895 7.92939 16.5134 10.7164 13.7931 13.329C11.0644 15.9497 7.92905 18.3552 4.83351 19.4467Z" stroke="white"/>
<path d="M16 14.9229C15.7239 15.1987 14.7239 15.1988 15 14.9229C17 12.9249 18.0001 11.9259 20 9.92776C21 8.92868 19 6.93071 19 6.93071L20 6.93071C20 6.93071 22 8.9287 21 9.92774C19.0001 11.9258 18 12.9248 16 14.9229Z" fill="white"/>
<path d="M6.72253 11.9258C9.84852 8.17745 14.0288 4.54136 16.4671 2.53472C17.6014 1.60121 19.2436 1.7109 20.2827 2.74907C21.2811 3.74642 21.4256 5.30661 20.5683 6.42728C18.6791 8.89697 15.1134 13.208 11.0129 16.4214C6.72253 11.9258 11.0129 16.4214 6.72253 11.9258Z" fill="#84E0F4"/>
</svg>
