<svg width="20" height="20" viewBox="0 0 20 20" fill="none" xmlns="http://www.w3.org/2000/svg">
<path d="M16 6.66666H20V19C20 19.5523 19.5523 20 19 20H17C16.4477 20 16 19.5523 16 19V6.66666Z" fill="white"/>
<path d="M10.6667 10.6667H14.6667V19C14.6667 19.5523 14.2189 20 13.6667 20H11.6667C11.1144 20 10.6667 19.5523 10.6667 19V10.6667Z" fill="white"/>
<path d="M5.33334 12.6667H9.33334V19C9.33334 19.5523 8.88563 20 8.33334 20H6.33334C5.78106 20 5.33334 19.5523 5.33334 19V12.6667Z" fill="white"/>
<path d="M0 16H4V19C4 19.5523 3.55228 20 3 20H1C0.447715 20 0 19.5523 0 19V16Z" fill="white"/>
<path d="M2 9V8.33333C4.66667 8.33333 4.66667 9 6.66667 9.00001V9.66666C4 9.66664 4.66667 8.99999 2 9Z" fill="white"/>
<path d="M8 9.66666V8.99999C10 8.99999 9.33333 4.33331 12 4.33331V4.99999C10 4.99999 10.6667 9.66666 8 9.66666Z" fill="white"/>
<path d="M13.3333 5V4.33333C15.3333 4.33333 15.3333 1 18 1V1.66667C16 1.66667 16 5 13.3333 5Z" fill="white"/>
<circle cx="1.33333" cy="8.66668" r="1.33333" fill="white"/>
<circle cx="7.33333" cy="9.33333" r="1.33333" fill="white"/>
<circle cx="12.6667" cy="4.66668" r="1.33333" fill="white"/>
<circle cx="18.6667" cy="1.33333" r="1.33333" fill="white"/>
</svg>
