<svg width="20" height="20" viewBox="0 0 20 20" fill="none" xmlns="http://www.w3.org/2000/svg">
<path d="M6.42133 14.971C6.66402 14.7592 6.92707 14.5532 7.21451 14.3955L5.43008 12.616C3.94261 14.3597 3.4663 15.4092 3.12352 16.1644C3.11323 16.187 3.10306 16.2095 3.09298 16.2316C2.90336 16.6486 2.72045 17.0453 2.39557 17.4146C2.33023 17.4888 2.26027 17.5609 2.18477 17.6312C2.55963 17.6079 2.899 17.5337 3.21033 17.4249C3.8661 17.1956 4.42507 16.8034 4.94567 16.3512C5.20618 16.1249 5.45168 15.8886 5.69592 15.652C5.70985 15.6385 5.7238 15.625 5.73775 15.6115C5.96471 15.3916 6.19399 15.1694 6.42133 14.971Z" stroke="white"/>
<path d="M18.9379 2.37344L17.62 1.05918C17.4244 0.864184 17.1074 0.864184 16.9119 1.05918L7.44685 10.498L9.47284 12.5184L18.9379 3.07956C19.1334 2.88457 19.1334 2.56843 18.9379 2.37344Z" stroke="white"/>
</svg>
